<svg xmlns="http://www.w3.org/2000/svg" xmlns:xlink="http://www.w3.org/1999/xlink" width="21" height="19" viewBox="0 0 21 19">
  <defs>
    <clipPath id="clip-path">
      <rect width="21" height="19" fill="none"/>
    </clipPath>
    <clipPath id="clip-path-2">
      <rect id="Rectangle_3403" data-name="Rectangle 3403" width="21" height="19" fill="#fff" stroke="#707070" stroke-width="1"/>
    </clipPath>
  </defs>
  <g id="Like_" data-name="Like " clip-path="url(#clip-path)">
    <g id="Like_this_song" data-name="Like this song" clip-path="url(#clip-path-2)">
      <g id="Dislike_this_song" data-name="Dislike this song" transform="translate(0 0.4)">
        <rect id="Rectangle_3402" data-name="Rectangle 3402" width="3.7" height="12.1" transform="translate(0 6.5)" fill="#fff"/>
        <path id="Path_833" data-name="Path 833" d="M15.187,12.5c.8-2.5.8-4,.1-4.9a2.736,2.736,0,0,0-2.3-.9c-.8,0-1.4.1-2,.1a8.2,8.2,0,0,1-3.1-.1,1.238,1.238,0,0,1-.3-.2c-.3-.5.1-1.7.4-2.7a13.773,13.773,0,0,0,.5-2.5,1.135,1.135,0,0,0-.6-1c-.1,0-.2-.1-.3-.1-.7,0-2.3.8-7.4,6.8l-.2.2V18.6h9.2C12.887,18.6,14.587,14.3,15.187,12.5ZM1.487,7.6A60.329,60.329,0,0,1,6.887,2c-.1.4-.2.8-.3,1.3-.4,1.4-.8,2.9-.2,3.9a2.151,2.151,0,0,0,1.2.9,8.815,8.815,0,0,0,2.1.3c.6,0,1.1-.1,1.6-.1a9.722,9.722,0,0,1,1.8-.1c.8,0,1,.2,1.1.3.2.2.3,1.1-.4,3.5-.5,1.5-1.9,5.1-4.6,5.1h-7.7V7.6Z" transform="translate(5.2 -0.2)" fill="#fff"/>
      </g>
    </g>
  </g>
</svg>
