<svg xmlns="http://www.w3.org/2000/svg" width="20" height="18" viewBox="0 0 20 18">
  <g id="favorite" transform="translate(-0.55 -0.5)" fill="none">
    <path d="M2.266,2.189a5.7,5.7,0,0,0,0,8.155L10.55,18.5l8.284-8.156a5.7,5.7,0,0,0,0-8.155,5.923,5.923,0,0,0-8.284,0A5.923,5.923,0,0,0,2.266,2.189Z" stroke="none"/>
    <path d="M 6.408107757568359 1.999990463256836 C 5.239667892456055 1.999990463256836 4.142368316650391 2.446770668029785 3.318317413330078 3.258041381835938 C 2.500608444213867 4.063031196594238 2.050287246704102 5.131570816040039 2.050287246704102 6.266811370849609 C 2.050298690795898 7.402041435241699 2.500617980957031 8.470551490783691 3.318326950073242 9.275530815124512 L 10.55019950866699 16.39510345458984 L 17.78230667114258 9.275521278381348 C 18.59999847412109 8.470551490783691 19.05030822753906 7.402041435241699 19.0502872467041 6.266820907592773 C 19.05027770996094 5.13158130645752 18.59991836547852 4.063051223754883 17.78212738037109 3.258030891418457 C 16.95807838439941 2.446770668029785 15.86075782775879 1.999990463256836 14.69231796264648 1.999990463256836 C 13.52387809753418 1.999990463256836 12.42655754089355 2.446770668029785 11.60250759124756 3.258030891418457 L 10.55015754699707 4.294031143188477 L 9.497827529907227 3.258010864257813 C 8.67381763458252 2.446761131286621 7.5765380859375 1.999990463256836 6.408107757568359 1.999990463256836 M 6.408106803894043 0.4999961853027344 C 7.90725040435791 0.4999961853027344 9.406387329101563 1.063030242919922 10.55017757415771 2.18910026550293 C 11.69401264190674 1.063030242919922 13.1931676864624 0.4999961853027344 14.69232177734375 0.4999961853027344 C 16.19147491455078 0.4999961853027344 17.69062805175781 1.063030242919922 18.83445739746094 2.18910026550293 C 21.12220764160156 4.441150665283203 21.12220764160156 8.092451095581055 18.83462715148926 10.34446144104004 L 10.55017757415771 18.50000190734863 L 2.265996932983398 10.34446144104004 C -0.02161216735839844 8.092451095581055 -0.02161216735839844 4.441150665283203 2.265996932983398 2.18910026550293 C 3.409812927246094 1.063030242919922 4.908962249755859 0.4999961853027344 6.408106803894043 0.4999961853027344 Z" stroke="none" fill="#fff"/>
  </g>
</svg>
