<svg xmlns="http://www.w3.org/2000/svg" xmlns:xlink="http://www.w3.org/1999/xlink" width="18" height="18" viewBox="0 0 18 18">
  <defs>
    <clipPath id="clip-path">
      <rect width="18" height="18" fill="none"/>
    </clipPath>
  </defs>
  <g id="Share" clip-path="url(#clip-path)">
    <path id="Share_18" data-name="Share 18" d="M15.215,12.6a2.853,2.853,0,0,0-1.989.9L5.37,9.5V9a.753.753,0,0,0-.1-.5l7.856-4a2.5,2.5,0,0,0,1.989.9A2.681,2.681,0,0,0,17.8,2.7,2.54,2.54,0,0,0,15.215,0,2.681,2.681,0,0,0,12.53,2.7v.4l-7.956,4a2.387,2.387,0,0,0-1.89-.8,2.7,2.7,0,0,0,0,5.4,2.5,2.5,0,0,0,1.989-.9l7.956,4.1v.4a2.685,2.685,0,1,0,5.37,0A2.834,2.834,0,0,0,15.215,12.6Z" fill="#fff"/>
  </g>
</svg>
